<svg width="622" height="622" viewBox="0 0 622 622" fill="none" xmlns="http://www.w3.org/2000/svg">
<rect width="622" height="622" fill="#FDF8F5"/>
<path d="M532.706 277.912H89.2939C80.6467 277.912 73.6367 284.927 73.6367 293.579V521.693C73.6367 530.345 80.6467 537.36 89.2939 537.36H532.706C541.354 537.36 548.364 530.345 548.364 521.693V293.579C548.364 284.927 541.354 277.912 532.706 277.912Z" stroke="#FA236A" stroke-width="9" stroke-dasharray="37 37"/>
<mask id="mask0_14_159" style="mask-type:luminance" maskUnits="userSpaceOnUse" x="68" y="78" width="486" height="271">
<path d="M532.706 78H89.2938C77.5336 78 68 87.5396 68 99.3073V327.42C68 339.188 77.5336 348.728 89.2938 348.728H532.706C544.466 348.728 554 339.188 554 327.42V99.3073C554 87.5396 544.466 78 532.706 78Z" fill="white"/>
</mask>
<g mask="url(#mask0_14_159)">
<path d="M532.706 78H89.2938C77.5336 78 68 87.5396 68 99.3073V327.42C68 339.188 77.5336 348.728 89.2938 348.728H532.706C544.466 348.728 554 339.188 554 327.42V99.3073C554 87.5396 544.466 78 532.706 78Z" fill="#FDF8F5"/>
<path d="M278.875 348.728H94.3041C79.7767 348.728 68 336.944 68 322.407V104.086C68 89.5496 79.7768 77.7654 94.3041 77.7654H527.696C542.223 77.7654 554 89.5496 554 104.086V322.407C554 336.944 542.223 348.728 527.696 348.728H346.725" stroke="#FA236A" stroke-width="20"/>
<path d="M285.934 166.245C290.645 166.059 290.795 167.079 294.703 169.42L305.174 175.691L346.086 200.202C350.196 202.714 354.305 205.136 358.434 207.609C360.751 208.995 362.03 212.183 361.223 214.782C360.873 215.915 360.496 217.401 359.559 218.203C357.235 220.191 354.303 221.407 351.725 222.96L330.582 235.678L300.535 253.617C298.627 254.743 296.73 255.974 294.792 257.08C293.639 257.738 292.505 258.609 291.3 259.221C290.358 259.709 289.338 260.031 288.287 260.172C286.017 260.487 284.166 260.06 282.326 258.648C280.93 257.567 280.019 255.975 279.795 254.221C279.621 252.849 279.693 250.732 279.694 249.281L279.681 241.887L279.691 217.125L279.725 187.002L279.713 177.821C279.708 174.81 279.223 171.3 281.213 168.86C282.569 167.196 283.822 166.511 285.934 166.245Z" fill="#FA236A"/>
</g>
<path d="M356.511 398.785C356.53 398.97 356.537 399.157 356.535 399.344C356.511 400.927 355.975 402.844 354.92 404.075C349.477 410.427 342.956 415.78 337.384 422.064C335.596 424.079 333.33 425.913 331.487 427.903C326.715 433.058 321.553 437.787 316.709 442.866C313.87 445.866 309.315 446.563 305.923 444.014C303.064 441.864 300.718 438.567 298.115 436.089C296.815 434.849 295.408 433.687 294.12 432.435C291.277 429.712 288.757 426.623 286.009 423.832C283.134 420.913 279.922 418.173 277.18 415.067C275.997 413.889 274.946 412.561 273.776 411.37C270.344 407.877 265.376 404.897 265.466 399.37C265.5 397.275 266.379 395.28 267.905 393.844C269.394 392.418 271.5 391.595 273.565 391.613C276.522 391.597 278.131 393.986 280.147 395.666C285.059 399.764 289.035 405.007 293.738 409.239C296.876 412.063 299.301 414.605 302.143 417.681C302.968 417.103 303.371 416.922 303.447 415.852C303.55 414.421 303.558 412.992 303.581 411.558C303.624 408.7 303.636 405.843 303.62 402.986L303.63 381.135L303.622 326.484L303.591 311.659C303.566 307.424 302.604 301.634 306.218 298.705C309.606 295.961 316.028 297.531 317.263 301.824C317.854 303.878 317.587 308.391 317.576 310.619L317.497 323.635L317.585 387.395L317.53 404.757C317.515 407.093 317.523 409.428 317.556 411.763C317.57 413.147 317.565 414.58 317.667 415.958C317.731 416.812 318.356 417.464 318.886 418.122C319.817 417.051 321.877 415.505 322.962 414.392C324.052 413.392 325.004 412.205 326.07 411.187C328.263 409.091 330.385 406.949 332.492 404.77C333.704 403.515 335.165 402.378 336.348 401.104C338.138 399.176 339.98 397.361 341.915 395.58C342.829 394.71 343.705 393.863 344.687 393.061C347.194 391.01 351.21 391.303 353.658 393.324C355.386 394.75 356.281 396.539 356.511 398.785Z" fill="#FA236A"/>
</svg>
